<svg width="142" height="50" viewBox="0 0 142 50" fill="none" xmlns="http://www.w3.org/2000/svg">
<path d="M49.25 25C49.25 38.3929 38.3929 49.25 25 49.25C11.6071 49.25 0.75 38.3929 0.75 25C0.75 11.6071 11.6071 0.75 25 0.75C38.3929 0.75 49.25 11.6071 49.25 25Z" stroke="white" stroke-width="1.5"/>
<path fill-rule="evenodd" clip-rule="evenodd" d="M25 46.9231C37.1078 46.9231 46.9231 37.1078 46.9231 25C46.9231 12.8922 37.1078 3.0769 25 3.0769C12.8922 3.0769 3.0769 12.8922 3.0769 25C3.0769 35.927 11.0712 44.9869 21.5301 46.65C21.5197 46.1757 21.501 45.6194 21.481 45.0253C21.4098 42.9083 21.3225 40.3111 21.5385 39.2309C20.7693 37.6924 18.8462 35.0001 17.3078 33.4616C14.6155 34.6155 9.23084 34.2309 7.69238 28.077C11.1539 26.9232 15.2308 27.3847 17.6924 32.3078C18.9744 33.4616 21.6155 35.9232 21.9232 36.5386C22.2308 37.1539 22.5642 36.795 22.6924 36.5386L23.077 34.2309C22.1796 32.3078 20.5385 27.4616 21.1539 23.4616L21.0394 23.2947C19.3431 20.824 16.3178 16.4178 23.4616 11.1539C25.7693 13.8463 27.5385 20.3847 22.3078 23.4616C22.436 26.2822 23.077 30.7693 23.4616 31.9232H23.8462C24.2308 30.7693 25.2308 28.2309 26.1539 27.3078C26.2127 27.249 26.1996 26.9652 26.1791 26.524V26.524V26.524V26.524V26.524V26.5239C26.0659 24.0801 25.7287 16.8055 36.1539 16.1539C36.9231 20.3847 34.9232 26.7693 26.9232 27.6924L25.0001 33.4616V34.2309C25.3847 33.7181 26.9232 32.5386 30.0001 31.9232C31.7949 29.8719 36.5385 26.8463 41.1539 31.1539C40.0001 33.3334 36.2308 36.7693 30.3847 33.077C28.9744 33.4616 25.8462 34.6155 24.6155 36.1539L23.8747 46.8947C24.2474 46.9135 24.6226 46.9231 25 46.9231ZM27.6924 17.3078C26.6667 14.7437 25.7693 8.46164 32.6924 6.92318C34.6155 11.1539 33.2308 16.3847 27.6924 17.3078ZM18.8462 28.4616C15.5129 28.5898 9.15392 26.2309 10.3847 15.7693C14.2308 16.1539 21.3078 19.2309 18.8462 28.4616ZM33.4616 28.077C33.5898 26.5386 35.3019 21.9232 40.3847 23.8463C39.6155 26.5386 38.077 28.8463 33.4616 28.077ZM25.7693 36.5386C27.5642 35.2565 31.8462 34.0001 34.6155 39.2309C32.5744 40.5129 27.9476 41.7693 25.7693 36.5386Z" fill="#F5F5F5"/>
<path d="M133.689 30.7522C128.222 30.7522 124.162 26.5326 124.162 21.1983V21.1453C124.162 15.8641 128.143 11.5383 133.849 11.5383C137.325 11.5383 139.475 12.706 141.173 14.4045L138.572 17.4033C137.113 16.1029 135.706 15.3068 133.822 15.3068C130.691 15.3068 128.435 17.9076 128.435 21.0922V21.1453C128.435 24.3299 130.637 26.9837 133.822 26.9837C135.945 26.9837 137.246 26.161 138.705 24.8076L141.306 27.4349C139.395 29.4783 137.299 30.7522 133.689 30.7522Z" fill="#F5F5F5"/>
<path d="M101.572 30.4339V11.8569H108.817C114.655 11.8569 118.689 15.8642 118.689 21.0923V21.1454C118.689 26.3735 114.655 30.4339 108.817 30.4339H101.572ZM108.817 15.5458H105.659V26.745H108.817C112.134 26.745 114.417 24.4892 114.417 21.1985V21.1454C114.417 17.8546 112.134 15.5458 108.817 15.5458Z" fill="#F5F5F5"/>
<path d="M79.7399 30.4339V11.8569H88.2322C90.5941 11.8569 92.3987 12.4939 93.646 13.7412C94.7076 14.8027 95.2383 16.2092 95.2383 17.9873V18.0404C95.2383 21.0392 93.6195 22.9235 91.2576 23.7992L95.7956 30.4339H91.0187L87.0379 24.4892H83.8268V30.4339H79.7399ZM83.8268 20.88H87.9668C89.9837 20.88 91.0983 19.845 91.0983 18.2527V18.1996C91.0983 16.4215 89.9041 15.5458 87.8872 15.5458H83.8268V20.88Z" fill="#F5F5F5"/>
<path d="M56.923 30.4339V11.8569H61.0099V19.2081H68.5468V11.8569H72.6337V30.4339H68.5468V22.9765H61.0099V30.4339H56.923Z" fill="#F5F5F5"/>
<path d="M139.285 39.2308V37.9569L138.043 36H138.874L139.645 37.2969L140.429 36H141.237L139.995 37.9431V39.2308H139.285Z" fill="#F5F5F5"/>
<path d="M135.996 39.2308V36.6554H135.013V36H137.69V36.6554H136.707V39.2308H135.996Z" fill="#F5F5F5"/>
<path d="M133.588 39.2308V36H134.298V39.2308H133.588Z" fill="#F5F5F5"/>
<path d="M129.771 39.2308V36H130.426L131.94 37.9892V36H132.641V39.2308H132.037L130.472 37.1769V39.2308H129.771Z" fill="#F5F5F5"/>
<path d="M127.491 39.2815C126.623 39.2815 126.093 38.8015 126.093 37.8462V36H126.803V37.8277C126.803 38.3585 127.062 38.6262 127.5 38.6262C127.939 38.6262 128.197 38.3677 128.197 37.8508V36H128.908V37.8231C128.908 38.8015 128.359 39.2815 127.491 39.2815Z" fill="#F5F5F5"/>
<path d="M121.998 39.2308V36H122.764L123.613 37.3662L124.463 36H125.229V39.2308H124.523V37.1215L123.613 38.5015H123.595L122.695 37.1354V39.2308H121.998Z" fill="#F5F5F5"/>
<path d="M117.853 39.2308V36H118.619L119.468 37.3662L120.317 36H121.083V39.2308H120.377V37.1215L119.468 38.5015H119.45L118.55 37.1354V39.2308H117.853Z" fill="#F5F5F5"/>
<path d="M115.362 39.2861C114.365 39.2861 113.65 38.543 113.65 37.6246V37.6153C113.65 36.6969 114.374 35.9446 115.371 35.9446C116.368 35.9446 117.084 36.6877 117.084 37.6061V37.6153C117.084 38.5338 116.359 39.2861 115.362 39.2861ZM115.371 38.6307C115.944 38.6307 116.34 38.1784 116.34 37.6246V37.6153C116.34 37.0615 115.934 36.6 115.362 36.6C114.79 36.6 114.393 37.0523 114.393 37.6061V37.6153C114.393 38.1692 114.799 38.6307 115.371 38.6307Z" fill="#F5F5F5"/>
<path d="M111.851 39.2861C110.9 39.2861 110.194 38.5523 110.194 37.6246V37.6153C110.194 36.6969 110.886 35.9446 111.879 35.9446C112.483 35.9446 112.857 36.1477 113.152 36.443L112.7 36.9646C112.446 36.7384 112.202 36.6 111.874 36.6C111.329 36.6 110.937 37.0523 110.937 37.6061V37.6153C110.937 38.1692 111.32 38.6307 111.874 38.6307C112.243 38.6307 112.469 38.4877 112.723 38.2523L113.176 38.7092C112.843 39.0646 112.479 39.2861 111.851 39.2861Z" fill="#F5F5F5"/>
<path d="M105.341 39.2308V36H106.818C107.229 36 107.542 36.1108 107.759 36.3277C107.944 36.5123 108.036 36.7569 108.036 37.0662V37.0754C108.036 37.5969 107.755 37.9246 107.344 38.0769L108.133 39.2308H107.302L106.61 38.1969H106.052V39.2308H105.341ZM106.052 37.5692H106.772C107.122 37.5692 107.316 37.3892 107.316 37.1123V37.1031C107.316 36.7938 107.109 36.6415 106.758 36.6415H106.052V37.5692Z" fill="#F5F5F5"/>
<path d="M102.111 39.2308V36H104.548V36.6323H102.817V37.2877H104.34V37.92H102.817V38.5985H104.571V39.2308H102.111Z" fill="#F5F5F5"/>
<path d="M99.7317 39.2308V36.6554H98.7487V36H101.426V36.6554H100.443V39.2308H99.7317Z" fill="#F5F5F5"/>
<path d="M96.6005 39.2308V36.6554H95.6174V36H98.2944V36.6554H97.3113V39.2308H96.6005Z" fill="#F5F5F5"/>
<path d="M92.6177 39.2308V36H95.0546V36.6323H93.3238V37.2877H94.8469V37.92H93.3238V38.5985H95.0777V39.2308H92.6177Z" fill="#F5F5F5"/>
<path d="M89.1484 39.2308V36H90.6484C91.0223 36 91.3038 36.0969 91.4931 36.2862C91.6407 36.4338 91.7146 36.6185 91.7146 36.8354V36.8446C91.7146 37.2046 91.5207 37.4215 91.29 37.5415C91.6638 37.6846 91.8946 37.9062 91.8946 38.3354V38.3446C91.8946 38.9354 91.4146 39.2308 90.6854 39.2308H89.1484ZM91.0084 36.9646V36.9554C91.0084 36.7385 90.8423 36.6231 90.5423 36.6231H89.8407V37.3062H90.4961C90.81 37.3062 91.0084 37.2046 91.0084 36.9646ZM91.1884 38.2569V38.2477C91.1884 38.0308 91.0315 37.8969 90.6623 37.8969H89.8407V38.6077H90.6854C90.9992 38.6077 91.1884 38.4969 91.1884 38.2569Z" fill="#F5F5F5"/>
<path d="M83.5646 39.2307L84.9492 35.9768H85.6046L86.9892 39.2307H86.2461L85.9507 38.506H84.5846L84.2892 39.2307H83.5646ZM84.8384 37.8783H85.6969L85.2677 36.8307L84.8384 37.8783Z" fill="#F5F5F5"/>
<path d="M80.1169 39.2861C79.1108 39.2861 78.4185 38.5846 78.4185 37.6246V37.6153C78.4185 36.6969 79.1338 35.9446 80.1123 35.9446C80.6892 35.9446 81.0492 36.1015 81.3815 36.3877L80.9338 36.9277C80.6892 36.72 80.4585 36.6 80.0892 36.6C79.5723 36.6 79.1615 37.0569 79.1615 37.6061V37.6153C79.1615 38.2061 79.5677 38.64 80.14 38.64C80.4031 38.64 80.6292 38.5753 80.8092 38.4461V37.9846H80.0938V37.3707H81.4969V38.7738C81.1646 39.0553 80.7077 39.2861 80.1169 39.2861Z" fill="#F5F5F5"/>
<path d="M74.7769 39.2308V36H75.4322L76.9461 37.9892V36H77.6476V39.2308H77.043L75.4784 37.1769V39.2308H74.7769Z" fill="#F5F5F5"/>
<path d="M73.1201 39.2308V36H73.8309V39.2308H73.1201Z" fill="#F5F5F5"/>
<path d="M69.3391 39.2308V36H70.5991C71.6145 36 72.316 36.6969 72.316 37.6062V37.6154C72.316 38.5246 71.6145 39.2308 70.5991 39.2308H69.3391ZM70.5991 36.6415H70.0499V38.5892H70.5991C71.176 38.5892 71.573 38.1969 71.573 37.6246V37.6154C71.573 37.0431 71.176 36.6415 70.5991 36.6415Z" fill="#F5F5F5"/>
<path d="M66.343 39.2308V36H67.0538V38.5846H68.6646V39.2308H66.343Z" fill="#F5F5F5"/>
<path d="M64.6863 39.2308V36H65.397V39.2308H64.6863Z" fill="#F5F5F5"/>
<path d="M62.3748 39.2815C61.5071 39.2815 60.9763 38.8015 60.9763 37.8462V36H61.6871V37.8277C61.6871 38.3585 61.9455 38.6262 62.384 38.6262C62.8225 38.6262 63.0809 38.3677 63.0809 37.8508V36H63.7917V37.8231C63.7917 38.8015 63.2425 39.2815 62.3748 39.2815Z" fill="#F5F5F5"/>
<path d="M57.5577 39.2308V36H59.0577C59.4316 36 59.7131 36.0969 59.9024 36.2862C60.05 36.4338 60.1239 36.6185 60.1239 36.8354V36.8446C60.1239 37.2046 59.93 37.4215 59.6993 37.5415C60.0731 37.6846 60.3039 37.9062 60.3039 38.3354V38.3446C60.3039 38.9354 59.8239 39.2308 59.0947 39.2308H57.5577ZM59.4177 36.9646V36.9554C59.4177 36.7385 59.2516 36.6231 58.9516 36.6231H58.25V37.3062H58.9054C59.2193 37.3062 59.4177 37.2046 59.4177 36.9646ZM59.5977 38.2569V38.2477C59.5977 38.0308 59.4408 37.8969 59.0716 37.8969H58.25V38.6077H59.0947C59.4085 38.6077 59.5977 38.4969 59.5977 38.2569Z" fill="#F5F5F5"/>
</svg>
