<svg width="40" height="40" viewBox="0 0 40 40" fill="none" xmlns="http://www.w3.org/2000/svg">
<path d="M20.0001 20C18.1667 20 16.5973 19.3635 15.2917 18.0906C13.9862 16.8177 13.3334 15.2875 13.3334 13.5C13.3334 11.7125 13.9862 10.1823 15.2917 8.90938C16.5973 7.63646 18.1667 7 20.0001 7C21.8334 7 23.4029 7.63646 24.7084 8.90938C26.014 10.1823 26.6667 11.7125 26.6667 13.5C26.6667 15.2875 26.014 16.8177 24.7084 18.0906C23.4029 19.3635 21.8334 20 20.0001 20ZM6.66675 33V28.45C6.66675 27.5292 6.9098 26.6828 7.39591 25.9109C7.88203 25.1391 8.52786 24.55 9.33341 24.1438C11.0556 23.3042 12.8056 22.6745 14.5834 22.2547C16.3612 21.8349 18.1667 21.625 20.0001 21.625C21.8334 21.625 23.639 21.8349 25.4167 22.2547C27.1945 22.6745 28.9445 23.3042 30.6667 24.1438C31.4723 24.55 32.1181 25.1391 32.6042 25.9109C33.0904 26.6828 33.3334 27.5292 33.3334 28.45V33H6.66675ZM10.0001 29.75H30.0001V28.45C30.0001 28.1521 29.9237 27.8812 29.7709 27.6375C29.6181 27.3937 29.4167 27.2042 29.1667 27.0688C27.6667 26.3375 26.1529 25.7891 24.6251 25.4234C23.0973 25.0578 21.5556 24.875 20.0001 24.875C18.4445 24.875 16.9029 25.0578 15.3751 25.4234C13.8473 25.7891 12.3334 26.3375 10.8334 27.0688C10.5834 27.2042 10.382 27.3937 10.2292 27.6375C10.0765 27.8812 10.0001 28.1521 10.0001 28.45V29.75ZM20.0001 16.75C20.9167 16.75 21.7015 16.4318 22.3542 15.7953C23.007 15.1589 23.3334 14.3938 23.3334 13.5C23.3334 12.6062 23.007 11.8411 22.3542 11.2047C21.7015 10.5682 20.9167 10.25 20.0001 10.25C19.0834 10.25 18.2987 10.5682 17.6459 11.2047C16.9931 11.8411 16.6667 12.6062 16.6667 13.5C16.6667 14.3938 16.9931 15.1589 17.6459 15.7953C18.2987 16.4318 19.0834 16.75 20.0001 16.75Z" fill="white"/>
</svg>
